<svg xmlns="http://www.w3.org/2000/svg" width="325.921" height="295.152" viewBox="0 0 325.921 295.152">
  <path id="Path_1333" data-name="Path 1333" d="M9173.375,2116.121c.095,0,.189.007.283.007h27.107a6,6,0,0,0,0-12h-26.994c-2.172-.074-21.816-.35-35.6,12.8-8.666,8.265-13.06,19.828-13.06,34.364l0,4.274c.043,40.616.08,75.692-34.174,90.623a6,6,0,0,0,0,11c34.254,14.933,34.217,50.009,34.174,90.624l0,4.275c0,14.536,4.394,26.1,13.06,34.365,12.545,11.966,29.937,12.813,34.6,12.813.461,0,.8-.009.994-.016h26.994a6,6,0,0,0,0-12h-27.107c-.094,0-.188,0-.283.007-.162.009-16.3.644-26.919-9.487-6.2-5.914-9.343-14.555-9.343-25.682l0-4.262c.022-21.343.044-41.5-4.9-59.08-4.618-16.424-13.229-28.638-26.189-37.057,12.96-8.417,21.571-20.63,26.189-37.055,4.941-17.577,4.92-37.738,4.9-59.079l0-4.263c0-11.09,3.122-19.71,9.279-25.621C9156.914,2115.569,9173.231,2116.113,9173.375,2116.121Zm236.283,130.067c-34.254-14.931-34.217-50.007-34.174-90.621l0-4.277c0-14.536-4.394-26.1-13.06-34.363-13.784-13.149-33.429-12.873-35.6-12.8h-26.994a6,6,0,0,0,0,12h27.107c.095,0,.188,0,.283-.007.158-.008,16.3-.643,26.918,9.488,6.2,5.913,9.344,14.554,9.344,25.681l0,4.265c-.022,21.342-.044,41.5,4.9,59.079,4.618,16.424,13.228,28.637,26.189,37.054-12.962,8.419-21.571,20.632-26.189,37.056-4.941,17.576-4.92,37.735-4.9,59.077l0,4.265c0,11.09-3.122,19.711-9.279,25.622-10.52,10.1-26.84,9.556-26.982,9.548-.095,0-.188-.007-.283-.007h-27.107a6,6,0,0,0,0,12h26.994c.2.007.532.016.994.016,4.668,0,22.061-.848,34.6-12.813,8.666-8.267,13.06-19.829,13.06-34.366l0-4.277c-.043-40.613-.08-75.688,34.174-90.621a6,6,0,0,0,0-11Z" transform="translate(-9087.34 -2104.113)" fill="#fff"/>
</svg>
