<svg xmlns="http://www.w3.org/2000/svg" width="292" height="343.008" viewBox="0 0 292 343.008">
  <path id="Path_1334" data-name="Path 1334" d="M10092.259,2132.012l-140-46.51a6.014,6.014,0,0,0-3.783,0l-140,46.51a6,6,0,0,0-4.108,5.694v114.03c0,42.277,18.688,84.187,52.622,118.008,27.412,27.318,77.154,58.461,93.378,58.461s65.966-31.143,93.378-58.461c33.935-33.82,52.622-75.728,52.622-118.008v-114.03A6,6,0,0,0,10092.259,2132.012Zm-7.892,119.724c0,39.066-17.435,77.957-49.093,109.508-27.353,27.258-74.24,54.961-84.907,54.961s-57.554-27.7-84.908-54.961c-31.657-31.553-49.092-70.444-49.092-109.508v-109.7l134-44.517,134,44.517Zm-206.373-76.186v67.843a6,6,0,0,0,6,6h126.9v45.026l-60.448,41.781-63.037-43.57a6,6,0,1,0-6.822,9.872l66.448,45.927a6,6,0,0,0,6.822,0l66.448-45.927a6,6,0,0,0,2.589-4.937v-54.172a6,6,0,0,0-6-6h-126.9V2181.55h126.9a6,6,0,0,0,0-12h-132.9A6,6,0,0,0,9877.994,2175.55Z" transform="translate(-9804.367 -2085.197)" fill="#fff"/>
</svg>
