<svg xmlns="http://www.w3.org/2000/svg" width="298.797" height="256.029" viewBox="0 0 298.797 256.029">
  <path id="Path_1465" data-name="Path 1465" d="M3593.012,3721.187a34,34,0,1,0,34,34A34.039,34.039,0,0,0,3593.012,3721.187Zm0,56a22,22,0,1,1,22-22A22.025,22.025,0,0,1,3593.012,3777.187ZM3783.741,3571.5a6,6,0,0,0-4.729-2.309h-220.3a5.974,5.974,0,0,0-2.985.795l-3.656-16.147a6,6,0,0,0-4.148-4.428l-54-16a6,6,0,0,0-3.409,11.506l50.629,15,30.927,136.6a6,6,0,0,0,5.852,4.674h171.092a6,6,0,0,0,5.82-4.544l30-120A6,6,0,0,0,3783.741,3571.5Zm-39.414,117.691H3582.713l-24.455-108.016c.149.011.3.016.452.016h212.617Zm-11.315,32a34,34,0,1,0,34,34A34.039,34.039,0,0,0,3733.012,3721.187Zm0,56a22,22,0,1,1,22-22A22.025,22.025,0,0,1,3733.012,3777.187Z" transform="translate(-3486.215 -3533.158)" fill="#fff"/>
</svg>
