

<svg width="1280px" height="261px" viewBox="0 0 1280 261" version="1.1" xmlns="http://www.w3.org/2000/svg" xmlns:xlink="http://www.w3.org/1999/xlink">
    <!-- Generator: Sketch 43 (38999) - http://www.bohemiancoding.com/sketch -->
    <desc>Created with Sketch.</desc>
    <defs></defs>
    <g id="Page-1" stroke="none" stroke-width="1" fill="none" fill-rule="evenodd">
        <g id="Desktop-Landscape" transform="translate(0.000000, -589.000000)" fill="#FFFFFF">
            <path d="M-62.8198294,553.022115 C219.195796,563.983053 315.10336,775.953225 614.017689,808.29669 C912.932017,840.640154 1278.99859,756.422159 1278.99859,756.422159 L1278.99859,882.586221 L-1.00140843,882.586221 C-1.00140843,882.586221 -344.835454,542.061178 -62.8198294,553.022115 Z" id="Rectangle" fill-opacity="0.199999988" transform="translate(552.538354, 717.674646) rotate(-3.000000) translate(-552.538354, -717.674646) "></path>
            <path d="M-31.6885602,625.61246 C250.327065,636.573397 339.075982,788.608423 637.990311,820.951887 C936.904639,853.295352 1279.485,809.780756 1279.485,809.780756 L1279.485,935.944819 L-0.515000108,935.944819 C-0.515000108,935.944819 -313.704185,614.651522 -31.6885602,625.61246 Z" id="Rectangle" fill-opacity="0.4" transform="translate(565.028647, 780.641537) rotate(-3.000000) translate(-565.028647, -780.641537) "></path>
            <path d="M-22.7300033,686.12217 C259.017609,663.242595 310.296773,797.24812 609.211102,829.591585 C908.12543,861.935049 1280.48454,829.591585 1280.48454,829.591585 L1280.48454,955.755647 L0.484539149,955.755647 C0.484539149,955.755647 -304.477616,709.001745 -22.7300033,686.12217 Z" id="Rectangle" transform="translate(569.140506, 819.632383) rotate(-3.000000) translate(-569.140506, -819.632383) "></path>
        </g>
    </g>
</svg>